<?xml version="1.0" encoding="UTF-8"?>
<svg width="600" height="400" viewBox="0 0 600 400" fill="none" xmlns="http://www.w3.org/2000/svg">
    <!-- Background Shield -->
    <path d="M300 50L550 150V300L300 400L50 300V150L300 50Z" fill="#4a90e2" fill-opacity="0.1"/>
    
    <!-- Email Icon -->
    <rect x="200" y="150" width="200" height="150" rx="10" fill="#4a90e2" fill-opacity="0.2"/>
    <path d="M200 150L300 250L400 150" stroke="#4a90e2" stroke-width="4"/>
    <rect x="220" y="170" width="160" height="110" rx="5" fill="white"/>
    
    <!-- Shield -->
    <path d="M300 100L400 150V250L300 300L200 250V150L300 100Z" fill="#4a90e2" fill-opacity="0.3"/>
    <path d="M300 100L400 150V250L300 300L200 250V150L300 100Z" stroke="#4a90e2" stroke-width="4"/>
    
    <!-- Check Mark -->
    <path d="M280 200L300 220L320 180" stroke="#2ecc71" stroke-width="4" stroke-linecap="round" stroke-linejoin="round"/>
    
    <!-- Decorative Elements -->
    <circle cx="150" cy="100" r="20" fill="#4a90e2" fill-opacity="0.2"/>
    <circle cx="450" cy="100" r="20" fill="#4a90e2" fill-opacity="0.2"/>
    <circle cx="150" cy="300" r="20" fill="#4a90e2" fill-opacity="0.2"/>
    <circle cx="450" cy="300" r="20" fill="#4a90e2" fill-opacity="0.2"/>
</svg> 